<mxfile host="app.diagrams.net" modified="2024-01-22T07:46:29.529Z" agent="Mozilla/5.0 (Windows NT 10.0; Win64; x64) AppleWebKit/537.36 (KHTML, like Gecko) Chrome/120.0.0.0 Safari/537.36" version="22.1.21" etag="Ak7sWLoXcz2_DBmv5ZrQ" type="github">
  <diagram name="Page-1" id="JXuv5zrjuFo7OraC1Hx7">
    <mxGraphModel>
      <root>
        <mxCell id="0" />
        <mxCell id="1" parent="0" />
      </root>
    </mxGraphModel>
  </diagram>
</mxfile>
